<svg xmlns="http://www.w3.org/2000/svg" viewBox="0 0 138.49 226.52"><defs><style>.cls-1{fill:#8c6239;}.cls-2{fill:#ba9bc9;}</style></defs><g id="Layer_2" data-name="Layer 2"><g id="Layer_3" data-name="Layer 3"><path class="cls-1" d="M138.43,40.1h.06V13.55c0-7.48-31-13.55-69.24-13.55S0,6.07,0,13.55V40.1H.06c.41,2.43,4.11,4.7,10.24,6.64a13.69,13.69,0,0,1-4.59,4.85C2,53.24,0,55.06,0,57V213c0,7.48,31,13.54,69.25,13.54s69.24-6.06,69.24-13.54V57c0-1.15-.73-2.27-2.11-3.33h0l-1.23-.93a8.08,8.08,0,0,1-.8-.35l-.47-.24a13.71,13.71,0,0,1-5.55-5.44C134.39,44.76,138,42.51,138.43,40.1ZM123.67,155.76v52C111,211,91.33,213,69.25,213s-41.75-2-54.42-5.18V61.44c12.67,3.15,32.33,5.18,54.42,5.18s41.74-2,54.42-5.18Z"/><path class="cls-2" d="M138.43,40.1h.06V13.55c0-7.48-31-13.55-69.24-13.55S0,6.07,0,13.55V40.1H.06c.41,2.43,4.11,4.7,10.24,6.64a0,0,0,0,0,0,0C10.18,48,40.11,54.1,69.06,54.15s59.43-6,59.31-7.42c0,0,0,0,0,0C134.39,44.76,138,42.51,138.43,40.1Z"/><path class="cls-2" d="M69.25,73.59c-17.79,0-34-1.31-46.26-3.47V200.83c12.26,2.15,28.47,3.47,46.26,3.47s34-1.32,46.25-3.47V70.12C103.24,72.28,87,73.59,69.25,73.59Zm23.86,62.85a12.18,12.18,0,0,1,1.47,5.83,12.33,12.33,0,0,1-9.51,12,12.31,12.31,0,0,1-11.94,20.15A12.33,12.33,0,1,1,51,165.51a12.32,12.32,0,0,1,.18-18.87c0-.31,0-.61,0-.92,0,0,0-.06,0-.1a12.33,12.33,0,0,1-6.47-21.7A12.32,12.32,0,0,1,62,107.28a12.33,12.33,0,1,1,23.47,6.43c.37,0,.74,0,1.12,0a12.32,12.32,0,0,1,6.53,22.78Z"/></g></g></svg>