<svg xmlns="http://www.w3.org/2000/svg" viewBox="0 0 138.49 226.52"><defs><style>.cls-1{fill:#8c6239;}</style></defs><g id="Layer_2" data-name="Layer 2"><g id="Layer_2-2" data-name="Layer 2"><path class="cls-1" d="M138.43,40.1h.06V13.55c0-7.48-31-13.55-69.24-13.55S0,6.07,0,13.55V40.1H.06c.41,2.43,4.11,4.7,10.24,6.64a13.69,13.69,0,0,1-4.59,4.85C2,53.24,0,55.06,0,57V213c0,7.48,31,13.54,69.25,13.54s69.24-6.06,69.24-13.54V57c0-1.15-.73-2.27-2.11-3.33h0l-1.23-.93a8.08,8.08,0,0,1-.8-.35l-.47-.24a13.71,13.71,0,0,1-5.55-5.44C134.39,44.76,138,42.51,138.43,40.1ZM123.67,155.76v52C111,211,91.33,213,69.25,213s-41.75-2-54.42-5.18V61.44c12.67,3.15,32.33,5.18,54.42,5.18s41.74-2,54.42-5.18Z"/><path class="cls-1" d="M69.25,73.59c-17.79,0-34-1.31-46.26-3.47V200.83c12.26,2.15,28.47,3.47,46.26,3.47s34-1.32,46.25-3.47V70.12C103.24,72.28,87,73.59,69.25,73.59Zm26,90.84a15.88,15.88,0,0,1-6,5.91,16.15,16.15,0,0,1-8.22,1.88,14.64,14.64,0,0,1-10.61-5,24.53,24.53,0,0,1-4.19-6.3c-1.83-3.67-1.45-4.27-3.91-10.21-1.64-4-2.5-5.35-3.46-6.57a24.72,24.72,0,0,0-4.16-3.94c-4.64-3.89-7-5.87-9-8.35A19,19,0,0,1,41.17,122a15.8,15.8,0,0,1,2.6-10.93,15.43,15.43,0,0,1,7.15-5.44A16.49,16.49,0,0,1,61.11,105a17.41,17.41,0,0,1,9.71,7.28,25.2,25.2,0,0,1,2.27,4.32c1.18,2.61,3.87,12.29,4.89,14a18,18,0,0,0,3.38,3.8c4,3.78,5.19,3.91,8.3,6.88a25.69,25.69,0,0,1,5.09,6.13,17.66,17.66,0,0,1,2.64,7.69A16.41,16.41,0,0,1,95.29,164.43Z"/></g></g></svg>